<svg height="512pt" viewBox="-60 0 512 512.00125" width="512pt" xmlns="http://www.w3.org/2000/svg"><path d="m227.582031 314.636719c-21.273437 0-38.519531-17.246094-38.519531-38.519531v-81.925782h77.039062v81.925782c0 21.269531-17.246093 38.519531-38.519531 38.519531zm0 0" fill="#516980"/><path d="m207.3125 43.457031 14.210938 70.167969-43.113282 8.730469-14.207031-70.164063zm0 0" fill="#889cb0"/><path d="m151.503906 252.386719-24.234375-119.660157s-51.128906 9.636719-97.273437 27.058594c-15.984375 6.035156-25.171875 22.84375-21.78125 39.589844l7.679687 37.929688c3.394531 16.746093 18.394531 28.65625 35.46875 27.996093 49.285157-1.898437 100.140625-12.914062 100.140625-12.914062zm0 0" fill="#a7b6c5"/><path d="m151.503906 252.386719-24.234375-119.660157s-22.441406 4.230469-51.007812 12.148438c-1.722657 18.128906-2.460938 43.632812 3.246093 65.164062 4.855469 18.316407 5.046876 37.703126 3.933594 52.910157 37.054688-3.847657 68.0625-10.5625 68.0625-10.5625zm0 0" fill="#889cb0"/><path d="m119.707031 243.21875-18.160156-89.675781c-3.867187-19.097657 8.480469-37.71875 27.582031-41.585938l194.667969-39.417969c19.097656-3.867187 37.714844 8.480469 41.585937 27.582032l18.15625 89.671875c3.867188 19.097656-8.480468 37.71875-27.578124 41.585937l-194.671876 39.417969c-19.097656 3.867187-37.714843-8.480469-41.582031-27.578125zm0 0" fill="#a7b6c5"/><path d="m383.539062 189.792969-18.160156-89.675781c-3.867187-19.097657-22.484375-31.445313-41.582031-27.578126l-22.03125 4.460938 32.164063 158.839844 22.03125-4.460938c19.097656-3.867187 31.445312-22.488281 27.578124-41.585937zm0 0" fill="#4f96d9"/><path d="m8.214844 199.375 7.679687 37.929688c3.394531 16.746093 18.394531 28.65625 35.46875 27.996093 4.972657-.191406 9.960938-.476562 14.914063-.832031l-22.21875-109.71875c-4.699219 1.601562-9.40625 3.277344-14.0625 5.035156-15.984375 6.035156-25.171875 22.84375-21.78125 39.589844zm0 0" fill="#3e4f61"/><path d="m131.898438 52.988281c-2.632813-13.015625 5.78125-25.699219 18.792968-28.332031l82.308594-16.667969c13.011719-2.636719 25.695312 5.777344 28.328125 18.789063 2.636719 13.011718-5.777344 25.699218-18.789063 28.332031l-82.308593 16.667969c-13.011719 2.636718-25.695313-5.777344-28.332031-18.789063zm0 0" fill="#007dd0"/><path d="m249.824219 362.378906h-44.488281v-69.058594c0-12.285156 9.960937-22.246093 22.246093-22.246093 12.285157 0 22.242188 9.960937 22.242188 22.246093zm0 0" fill="#6a829a"/><path d="m164.292969 496.722656c-11.398438-3.449218-17.84375-15.488281-14.390625-26.890625l36.257812-119.753906 41.28125 12.496094-36.253906 119.757812c-3.453125 11.398438-15.492188 17.84375-26.894531 14.390625zm0 0" fill="#6a829a"/><path d="m210.894531 417.234375 16.546875-54.660156-41.28125-12.496094-21.984375 72.609375c11.726563-2.398438 28.671875-5.101562 46.71875-5.453125zm0 0" fill="#516980"/><path d="m292.21875 496.722656c11.402344-3.449218 17.847656-15.488281 14.394531-26.890625l-36.257812-119.753906-41.285157 12.496094 36.257813 119.757812c3.453125 11.398438 15.492187 17.84375 26.890625 14.390625zm0 0" fill="#6a829a"/><path d="m286.035156 401.859375-15.679687-51.78125-41.285157 12.496094 16.453126 54.34375c15.363281-2.386719 29.648437-8.84375 40.511718-15.058594zm0 0" fill="#516980"/><path d="m228.257812 504.5c-11.910156 0-21.566406-9.65625-21.566406-21.566406v-125.125h43.132813v125.125c0 11.910156-9.65625 21.566406-21.566407 21.566406zm0 0" fill="#889cb0"/><path d="m206.691406 417.355469c7.050782-.277344 14.324219-.222657 21.566406.332031 7.308594.5625 14.574219-.097656 21.566407-1.539062v-58.339844h-43.132813zm0 0" fill="#6a829a"/><path d="m272.347656 382.996094h-89.535156c-11.382812 0-20.617188-9.230469-20.617188-20.617188 0-11.386718 9.230469-20.617187 20.617188-20.617187h89.535156c11.386719 0 20.617188 9.230469 20.617188 20.617187 0 11.382813-9.230469 20.617188-20.617188 20.617188zm0 0" fill="#a7b6c5"/><path d="m204.082031 362.378906c0-11.386718 9.230469-20.617187 20.617188-20.617187h-41.882813c-11.386718 0-20.617187 9.230469-20.617187 20.617187 0 11.382813 9.230469 20.617188 20.617187 20.617188h41.882813c-11.386719 0-20.617188-9.234375-20.617188-20.617188zm0 0" fill="#889cb0"/><path d="m286.695312 173.664062-2.363281-12.226562c-.789062-4.066406-4.722656-6.726562-8.789062-5.941406-4.066407.789062-6.726563 4.722656-5.9375 8.789062l2.363281 12.222656c.785156 4.070313 4.71875 6.730469 8.785156 5.941407 4.066406-.785157 6.726563-4.71875 5.941406-8.785157zm0 0"/><path d="m162.964844 184.894531c-.785156-4.066406-4.71875-6.726562-8.785156-5.9375-4.070313.785157-6.730469 4.71875-5.941407 8.785157l2.363281 12.226562c.785157 4.066406 4.71875 6.726562 8.785157 5.941406 4.066406-.789062 6.726562-4.722656 5.941406-8.789062zm0 0"/><path d="m232.042969 174.40625c-1.402344-.578125-7.324219-1.632812-9.789063 4.082031-1.179687 2.738281-3.527344 3.496094-4.503906 3.683594-.976562.191406-3.472656.398437-5.554688-1.742187-2.890624-2.964844-7.636718-3.027344-10.605468-.140626-2.964844 2.890626-3.027344 7.640626-.140625 10.605469 4.980469 5.117188 12.136719 7.359375 19.148437 6.003907 7.007813-1.351563 12.8125-6.101563 15.53125-12.703126 1.574219-3.832031-.253906-8.214843-4.085937-9.789062zm0 0"/><path d="m235.082031 294.132812c0 4.140626-3.359375 7.5-7.5 7.5-4.144531 0-7.5-3.359374-7.5-7.5 0-4.144531 3.355469-7.5 7.5-7.5 4.140625 0 7.5 3.355469 7.5 7.5zm0 0"/><path d="m390.890625 188.304688-9.960937-49.195313c-.824219-4.058594-4.78125-6.6875-8.839844-5.863281-4.0625.824218-6.6875 4.78125-5.863282 8.839844l9.960938 49.195312c3.042969 15.015625-6.699219 29.707031-21.714844 32.746094l-14.679687 2.96875-29.1875-144.132813 14.679687-2.972656c15.015625-3.039063 29.703125 6.703125 32.742188 21.714844l1.601562 7.902343c.824219 4.058594 4.78125 6.683594 8.839844 5.859376 4.058594-.820313 6.683594-4.777344 5.863281-8.835938l-1.601562-7.902344c-4.679688-23.121094-27.300781-38.121094-50.421875-33.441406l-98.898438 20.027344-3.613281-17.847656 24.230469-4.90625c17.046875-3.453126 28.105468-20.125 24.652344-37.171876-1.667969-8.257812-6.457032-15.367187-13.480469-20.023437-7.019531-4.65625-15.433594-6.300781-23.6875-4.628906l-82.308594 16.667969c-17.046875 3.449218-28.105469 20.125-24.652344 37.171874 6.867188 31.140626 37.433594 24.597657 37.433594 24.597657l3.613281 17.84375-37.960937 7.6875c-15.148438 3.066406-26.808594 13.835937-31.734375 27.402343-18.078125 4.425782-43.988282 11.484376-68.554688 20.761719-19.5 7.359375-30.636718 27.585938-26.484375 48.089844l7.683594 37.933594c4.039063 19.957031 21.316406 33.785156 41.4375 34.035156 17.53125.214844 54.382813-4.601563 72.871094-7.574219 2.296875 2.476563 14.457031 17.683594 39.921875 12.890625l18.785156-3.800781s-3.121094 23.988281 16.273438 36.871094v23.046875h-15.023438c-15.5 0-28.117188 12.613281-28.117188 28.117187 0 9.84375 5.089844 18.515625 12.773438 23.542969l-15.890625 52.480469c-1.199219 3.964844 1.042969 8.152344 5.007813 9.351562.722656.21875 6.566406 1.882813 9.351562-5.003906l15.828125-52.28125c.347656.011719 17.425781.027344 17.425781.027344v39.609375c-.066406.167969-15.183594 50.054687-15.183594 50.054687-2.25 7.421875-10.050781 11.40625-17.539062 9.386719-11.628906-3.132813-10.476562-13.941406-9.390625-17.539063 1.203125-3.964843-1.039063-8.152343-5.003906-9.351562-3.960938-1.199219-8.148438 1.039062-9.351563 5.003906-2.25 7.429688-3.714844 29.996094 19.398438 36.242188 28.78125 7.78125 37.066406-22.125 37.066406-22.125s-1.605469 30.222656 29.070312 30.222656c30.671876 0 29.066407-30.222656 29.066407-30.222656s6.882812 30.222656 37.066406 22.125c15.480469-4.152344 24.042969-20.902344 19.398437-36.242188l-24.980468-82.507812c7.054687-5.113282 11.652344-13.414063 11.652344-22.773438 0-15.503906-12.609376-28.117187-28.113282-28.117187h-15.023437v-23.054688c10.253906-8.703125 16.273437-21.507812 16.273437-35.089843v-20.410157l83.847656-16.976562c23.125-4.683594 38.125-27.304688 33.445313-50.425781zm-251.640625-136.804688c-1.808594-8.9375 3.992188-17.683594 12.929688-19.492188l82.308593-16.667968c4.332031-.875 16.511719-.988282 19.492188 12.925781 2.980469 13.917969-8.597657 18.617187-12.929688 19.496094l-82.308593 16.664062c-8.9375 1.808594-17.679688-3.988281-19.492188-12.925781zm37.4375 24.597656 28.410156-5.753906 3.613282 17.847656-28.410157 5.753906zm-153.441406 159.71875-7.679688-37.933594c-3.53125-22.492187 20.921875-32.507812 22.851563-33.207031l18.800781 92.84375c-2.050781.109375-27.429688 4.425781-33.972656-21.703125zm49.0625 20.648438-19.582032-96.6875c14.65625-4.765625 28.890626-8.695313 40.652344-11.679688.085938 2.292969 20.097656 101.152344 20.914063 103.3125-12.035157 1.832032-26.660157 3.75-41.984375 5.054688zm87.492187 6.980468c-7.273437 1.472657-14.683593.023438-20.867187-4.078124-6.1875-4.101563-10.402344-10.367188-11.878906-17.640626l-18.15625-89.671874c-1.472657-7.273438-.023438-14.6875 4.078124-20.871094 4.101563-6.183594 10.367188-10.402344 17.640626-11.875l165.289062-33.46875 29.1875 144.136718zm36.761719 7.859376 15.019531-3.042969c-6.546875 4.195312-11.34375 10.875-13.054687 18.703125-2.652344-4.96875-1.964844-15.660156-1.964844-15.660156zm31.695312 225.695312c-7.757812 0-14.066406-6.308594-14.066406-14.066406v-92.4375h28.132813v92.4375c0 7.757812-6.308594 14.066406-14.066407 14.066406zm71.179688-24.996094c2.246094 7.425782-2.039062 15.066406-9.390625 17.542969-10.167969 3.421875-16.449219-5.792969-17.539063-9.390625l-15.183593-50.144531v-39.515625s16.617187-.042969 17.402343-.109375zm-13.972656-109.625c0 7.230469-5.882813 13.117188-13.117188 13.117188h-89.535156c-7.230469 0-13.117188-5.886719-13.117188-13.117188 0-7.234375 5.886719-13.117187 13.117188-13.117187h89.535156c7.234375 0 13.117188 5.882812 13.117188 13.117187zm-72.628906-28.117187v-40.941407c0-8.132812 6.617187-14.746093 14.746093-14.746093 8.128907 0 14.742188 6.613281 14.742188 14.746093v40.941407zm43.800781-47.296875c-2.570313-11.75-12.097657-20.917969-24.03125-22.957032l25.996093-5.265624s2.269532 20.691406-1.964843 28.222656zm0 0"/></svg>