<svg id="line" height="512" viewBox="0 0 64 64" width="512" xmlns="http://www.w3.org/2000/svg"><g fill="#c4a2fc"><path d="m62.866 28.806a1 1 0 0 0 -1.366-.366l-7.75 4.474.5.289a1 1 0 0 1 .5.866v.577l7.75-4.474a1 1 0 0 0 .366-1.366z"/><path d="m22.82 33.2.5-.289-7.748-4.471a1 1 0 0 0 -1 1.732l7.748 4.474v-.577a1 1 0 0 1 .5-.869z"/><path d="m53.75 32.914-14.714-8.5a1 1 0 0 0 -1 0l-14.716 8.5 15.216 8.786z"/><path d="m22.32 51.638a1 1 0 0 0 .5.866l14.716 8.496v-17.569l-15.216-8.785z"/><path d="m39.536 61 14.715-8.5a1 1 0 0 0 .5-.866v-16.988l-15.215 8.785z"/></g><path d="m41.641 33.1v-10.2a5 5 0 1 0 -4.723-8.2l-8.875-5.129a4.934 4.934 0 0 0 .277-1.571 5 5 0 0 0 -10 0 4.941 4.941 0 0 0 .28 1.572l-8.877 5.128a4.99 4.99 0 1 0 -4.723 8.2v10.2a5 5 0 1 0 4.724 8.2l8.876 5.129a4.935 4.935 0 0 0 -.28 1.571 5 5 0 0 0 10 0 4.934 4.934 0 0 0 -.277-1.571l8.875-5.124a4.991 4.991 0 1 0 4.723-8.2zm-1-18.1a3 3 0 0 1 .054 5.994c-.019 0-.09 0-.109 0a3 3 0 0 1 -2.945-2.994 3.033 3.033 0 0 1 3-3zm-17.321-10a3 3 0 1 1 -3 3 3 3 0 0 1 3-3zm-12.6 11.429 8.88-5.124a4.936 4.936 0 0 0 7.447 0l8.874 5.124a4.6 4.6 0 0 0 0 3.144l-8.878 5.127a4.936 4.936 0 0 0 -7.446 0l-8.875-5.123a4.581 4.581 0 0 0 0-3.143zm15.6 11.571a3 3 0 1 1 -3-3 3 3 0 0 1 3 3zm-23.32-10a3 3 0 1 1 3.055 2.994c-.019 0-.091 0-.11 0a3 3 0 0 1 -2.945-2.994zm3 23a3 3 0 0 1 -3-3c0-3.947 6-4.011 6 0a3.032 3.032 0 0 1 -3 3zm13.6 3.7-8.874-5.125a4.934 4.934 0 0 0 .274-1.575 5.009 5.009 0 0 0 -4-4.9v-10.2a4.983 4.983 0 0 0 2.723-1.594l8.877 5.122a4.946 4.946 0 0 0 -.28 1.572 5.009 5.009 0 0 0 4 4.9v10.2a4.979 4.979 0 0 0 -2.72 1.6zm3.72 6.3a3 3 0 1 1 3-3 3 3 0 0 1 -3 3zm12.321-13a4.935 4.935 0 0 0 .277 1.572l-8.874 5.128a4.982 4.982 0 0 0 -2.724-1.6v-10.2a5.008 5.008 0 0 0 4-4.9 4.945 4.945 0 0 0 -.277-1.572l8.875-5.123a4.983 4.983 0 0 0 2.723 1.595v10.2a5.008 5.008 0 0 0 -4 4.9zm5 3a3.031 3.031 0 0 1 -3-3 3 3 0 0 1 2.945-2.994h.114a3 3 0 0 1 -.059 5.994z" fill="#151a6a"/></svg>