<svg height="511pt" viewBox="1 -22 511.999 511" width="511pt" xmlns="http://www.w3.org/2000/svg"><path d="m458.246094 236.1875h-219.371094v223.015625h209.832031c30.8125 0 55.792969-24.980469 55.792969-55.792969v-120.96875c0-25.542968-20.710938-46.253906-46.253906-46.253906zm0 0" fill="#efb899"/><path d="m238.875 350.597656v108.605469h209.832031c30.8125 0 55.792969-24.980469 55.792969-55.792969v-52.8125zm0 0" fill="#e4996d"/><path d="m392.910156 403.410156v-347.566406c0-26.421875-21.421875-47.84375-47.84375-47.84375h-240.285156c-26.425781 0-47.847656 21.421875-47.847656 47.84375v355.515625c0 26.421875 21.421875 47.84375 47.847656 47.84375h343.925781c-30.816406 0-55.796875-24.980469-55.796875-55.792969zm0 0" fill="#f6d6c5"/><path d="m219.171875 386.453125c-70.96875-19.355469-84.632813-56.773437-84.632813-56.773437h-77.605468v81.679687c0 26.421875 21.421875 47.84375 47.847656 47.84375h197.691406c-12.828125-24.730469-38.488281-60.53125-83.300781-72.75zm0 0" fill="#efb899"/><path d="m104.222656 292.320312s6.300782 85.105469-34.089844 127.277344c-7.238281 7.558594-19.875 5.152344-23.886718-4.515625-2.964844-7.152343-5.714844-13.761719-5.714844-13.761719l-21.070312-1.007812c-8.882813-.425781-13.371094-10.890625-7.554688-17.609375 15.648438-18.078125 35.742188-51.921875 34.191406-105.542969.78125-.660156 58.125 15.160156 58.125 15.160156zm0 0" fill="#f4e74d"/><path d="m46.097656 277.160156c.519532 17.960938-1.390625 33.699219-4.746094 47.375 4.390626 4.988282 8.679688 11.835938 9.761719 20.257813 1.546875 12.054687 8.0625 45.769531 29.484375 61.464843 28.765625-44.511718 23.625-113.9375 23.625-113.9375s-57.34375-15.820312-58.125-15.160156zm0 0" fill="#dfca00"/><path d="m70.3125 292.320312s-6.304688 85.105469 34.085938 127.277344c7.242187 7.558594 19.878906 5.152344 23.886718-4.515625 2.964844-7.152343 5.714844-13.761719 5.714844-13.761719l21.074219-1.007812c8.878906-.425781 13.371093-10.890625 7.550781-17.609375-15.648438-18.078125-35.738281-51.921875-34.191406-105.542969-.777344-.660156-58.121094 15.160156-58.121094 15.160156zm0 0" fill="#fcf5af"/><path d="m128.433594 277.160156c-.777344-.660156-58.121094 15.160156-58.121094 15.160156s-2.203125 29.746094 4.339844 62.78125c2.640625-9.148437 9.339844-19.917968 26.300781-19.640624 16.351563.273437 26.613281-5.046876 32.507813-9.8125-3.53125-13.929688-5.558594-30.039063-5.027344-48.488282zm0 0" fill="#f4e74d"/><path d="m161.789062 241.257812c0 9.6875-12.929687 16.730469-16.421874 25.152344-3.617188 8.730469.40625 22.820313-6.171876 29.398438-6.578124 6.578125-20.671874 2.554687-29.398437 6.175781-8.421875 3.492187-15.46875 16.421875-25.152344 16.421875-9.683593 0-16.726562-12.929688-25.148437-16.421875-8.730469-3.621094-22.820313.402344-29.402344-6.175781-6.578125-6.578125-2.554688-20.667969-6.171875-29.398438-3.492187-8.421875-16.421875-15.464844-16.421875-25.152344 0-9.683593 12.929688-16.726562 16.421875-25.148437 3.617187-8.730469-.40625-22.820313 6.171875-29.398437 6.582031-6.582032 20.671875-2.554688 29.402344-6.175782 8.421875-3.492187 15.464844-16.421875 25.148437-16.421875 9.683594 0 16.726563 12.929688 25.152344 16.421875 8.726563 3.621094 22.820313-.40625 29.398437 6.175782 6.578126 6.578124 2.554688 20.667968 6.171876 29.398437 3.492187 8.421875 16.421874 15.464844 16.421874 25.148437zm0 0" fill="#73da8c"/><path d="m128.433594 241.257812c0 24.1875-19.605469 43.792969-43.789063 43.792969-24.183593 0-43.789062-19.605469-43.789062-43.792969 0-24.183593 19.605469-43.789062 43.789062-43.789062 24.183594 0 43.789063 19.605469 43.789063 43.789062zm0 0" fill="#f4e74d"/><path d="m160.902344 117.652344c0-13.179688-13.421875-23.867188-29.972656-23.867188-16.554688 0-29.976563 10.6875-29.976563 23.867188 0 13.183594 13.421875 23.871094 29.976563 23.871094 16.550781 0 29.972656-10.6875 29.972656-23.871094zm0 0" fill="#ffabcd"/><path d="m348.890625 117.652344c0-13.179688-13.417969-23.867188-29.972656-23.867188-16.550781 0-29.972657 10.6875-29.972657 23.867188 0 13.183594 13.421876 23.871094 29.972657 23.871094 16.554687 0 29.972656-10.6875 29.972656-23.871094zm0 0" fill="#ffabcd"/><path d="m245.78125 111.605469c0-13.640625-9.339844-24.695313-20.859375-24.695313s-20.855469 11.054688-20.855469 24.695313 9.335938 24.699219 20.855469 24.699219 20.859375-11.058594 20.859375-24.699219zm0 0" fill="#575757"/><path d="m305.578125 77.101562c-4.140625 0-7.5 3.355469-7.5 7.5v12.449219c0 4.144531 3.359375 7.5 7.5 7.5 4.144531 0 7.5-3.355469 7.5-7.5v-12.449219c0-4.144531-3.355469-7.5-7.5-7.5zm0 0"/><path d="m144.265625 77.101562c-4.144531 0-7.5 3.355469-7.5 7.5v12.449219c0 4.144531 3.355469 7.5 7.5 7.5s7.5-3.355469 7.5-7.5v-12.449219c0-4.144531-3.355469-7.5-7.5-7.5zm0 0"/><path d="m84.644531 292.550781c28.28125 0 51.292969-23.011719 51.292969-51.292969s-23.011719-51.289062-51.292969-51.289062-51.289062 23.007812-51.289062 51.289062 23.007812 51.292969 51.289062 51.292969zm0-87.582031c20.011719 0 36.292969 16.28125 36.292969 36.289062 0 20.011719-16.28125 36.292969-36.292969 36.292969s-36.289062-16.28125-36.289062-36.292969c0-20.007812 16.277343-36.289062 36.289062-36.289062zm0 0"/><path d="m458.246094 228.6875h-33.265625c-4.140625 0-7.5 3.359375-7.5 7.5 0 4.144531 3.359375 7.5 7.5 7.5h33.265625c21.367187 0 38.753906 17.386719 38.753906 38.753906v120.96875c0 26.628906-21.664062 48.292969-48.292969 48.292969-26.628906 0-48.292969-21.664063-48.292969-48.292969v-347.566406c0-30.515625-24.828124-55.34375-55.347656-55.34375h-240.285156c-30.519531 0-55.347656 24.828125-55.347656 55.34375v118.929688c-1.011719.054687-16.078125-1.566407-24.640625 6.632812-6.03125 5.773438-6.21875 14.226562-6.5 21.570312-.148438 3.859376-.300781 7.847657-1.300781 10.261719-.910157 2.191407-3.53125 4.988281-6.066407 7.691407-4.867187 5.195312-10.925781 11.65625-10.925781 20.328124 0 8.675782 6.058594 15.136719 10.925781 20.328126 2.535157 2.703124 5.15625 5.5 6.066407 7.695312 1 2.414062 1.152343 6.402344 1.300781 10.257812.277343 7.34375.597656 15.671876 6.5 21.574219 3.484375 3.484375 7.816406 5.015625 12.292969 5.75-4.742188 34.4375-19.167969 57.433594-30.851563 70.929688-4.582031 5.292969-5.71875 12.582031-2.960937 19.019531 2.757812 6.441406 8.824218 10.652344 15.828124 10.988281l16.328126.785157c1.050781 2.523437 3.328124 18.902343 17.390624 21.871093 7.921876 21.554688 28.664063 36.246094 51.960938 36.246094h343.921875c34.902344 0 63.296875-28.394531 63.296875-63.292969v-120.96875c0-29.636718-24.113281-53.753906-53.753906-53.753906zm-427.398438 34.847656c-1.953125-4.71875-15.847656-19.535156-15.847656-22.277344 0-2.742187 13.894531-17.558593 15.851562-22.273437 2.03125-4.902344 2.804688-25.226563 4.546876-26.972656 1.746093-1.742188 22.070312-2.515625 26.96875-4.546875 4.71875-1.957032 19.535156-15.851563 22.277343-15.851563 2.742188 0 17.558594 13.894531 22.277344 15.851563 4.898437 2.03125 25.226563 2.804687 26.96875 4.546875 1.746094 1.746093 2.519531 22.070312 4.550781 26.972656 1.957032 4.71875 15.847656 19.53125 15.847656 22.273437 0 2.742188-13.890624 17.5625-15.847656 22.277344-2.035156 4.898438-2.804687 25.226563-4.550781 26.96875-1.742187 1.746094-22.070313 2.519532-26.96875 4.550782-4.71875 1.957031-19.535156 15.851562-22.277344 15.851562-2.742187 0-17.558593-13.894531-22.277343-15.851562-4.898438-2.03125-25.226563-2.804688-26.96875-4.550782-1.746094-1.742187-2.515626-22.066406-4.550782-26.96875zm10.042969 130.292969-21.070313-1.007813c-1.722656-.085937-2.46875-1.234374-2.757812-1.914062-.289062-.675781-.605469-2 .515625-3.296875 13.148437-15.191406 29.398437-41.074219 34.492187-79.664063 1.765626.179688 7.082032 1.636719 10.519532 5.425782.40625 13.761718 1.753906 27.09375 4.03125 39.640625.660156 3.625 3.332031 7.125 8.722656 6.039062 4.058594-.816406 6.777344-4.644531 6.039062-8.71875-1.488281-8.195312-2.550781-16.761719-3.195312-25.582031 13.617188 4.125 21.59375-4.902344 26.785156-9.773438 2.703125-2.535156 8.5625-8.117187 17.445313-7.34375 5.046875 38.75 21.339843 64.734376 34.535156 79.976563 1.125 1.296875.804687 2.621094.515625 3.296875-.289062.679688-1.035156 1.828125-2.753906 1.914062l-21.074219 1.007813c-2.894531.140625-5.449219 1.933594-6.5625 4.609375 0 0-2.753906 6.613281-5.722656 13.773438-.925781 2.234374-2.824219 3.773437-5.210938 4.222656-2.367187.441406-4.671875-.292969-6.328125-2.023438-8.496094-8.871094-15.476562-20.671875-20.746094-35.082031-1.421874-3.890625-5.730468-5.890625-9.621093-4.46875-3.886719 1.421875-5.886719 5.730469-4.464844 9.621094 1.230469 3.359375 2.550781 6.59375 3.953125 9.714843-4.097656 7.832032-8.871094 14.625-14.21875 20.214844-1.660156 1.730469-3.964844 2.464844-6.332031 2.023438-2.382813-.445313-4.285157-1.988282-5.210938-4.222656-2.964843-7.160157-5.71875-13.773438-5.71875-13.773438-1.113281-2.675781-3.671875-4.46875-6.566406-4.609375zm63.890625 57.875c-15.386719 0-29.246094-8.792969-36.007812-22.128906 2.5-1.140625 12.199218-7.25 18.488281-19.84375 3.554687 5.578125 7.464843 10.613281 11.722656 15.054687 4.191406 4.375 11.175781 7.191406 19.925781 6.390625 7.445313-.679687 13.441406-6.320312 16.304688-13.222656 1.441406-3.488281 2.835937-6.84375 3.886718-9.367187l16.332032-.785157c7.003906-.335937 13.066406-4.546875 15.824218-10.988281 2.757813-6.4375 1.625-13.726562-2.960937-19.019531-11.835937-13.675781-26.460937-37.066407-31.015625-72.203125 18.308594-9.734375 9.5625-29.773438 16.800781-39.164063h146.597657c4.144531 0 7.5-3.355469 7.5-7.5 0-4.140625-3.355469-7.5-7.5-7.5h-134.246094c1.703125-3.019531 2.855468-6.382812 2.855468-10.167969 0-11.164062-13.519531-23.097656-14.617187-24.425781h180.597656c4.140625 0 7.5-3.359375 7.5-7.5 0-4.144531-3.359375-7.5-7.5-7.5h-184.316406c-.28125-7.054687-.855469-14.828125-6.457031-20.425781-5.902344-5.902344-14.226563-6.21875-21.570313-6.5-3.855469-.144531-7.84375-.296875-10.257812-1.296875-2.195313-.914063-4.992188-3.535156-7.695313-6.070313-5.191406-4.867187-11.652344-10.925781-20.328125-10.925781-8.609375 0-15.039062 5.96875-20.210937 10.816407v-111.585938c0-22.246094 18.101562-40.34375 40.347656-40.34375h240.285156c22.246094 0 40.34375 18.097656 40.34375 40.34375v347.566406c0 19.335938 8.71875 36.675782 22.425782 48.292969zm0 0"/><path d="m224.921875 79.410156c-15.636719 0-28.355469 14.441406-28.355469 32.195313 0 17.753906 12.71875 32.199219 28.355469 32.199219s28.359375-14.445313 28.359375-32.199219c0-17.753907-12.722656-32.195313-28.359375-32.195313zm0 49.394532c-7.363281 0-13.355469-7.714844-13.355469-17.195313 0-9.484375 5.992188-17.199219 13.355469-17.199219 7.367187 0 13.359375 7.714844 13.359375 17.199219 0 9.480469-5.992188 17.195313-13.359375 17.195313zm0 0"/></svg>